<svg xmlns="http://www.w3.org/2000/svg" version="1.1" xmlns:xlink="http://www.w3.org/1999/xlink" xmlns:svgjs="http://svgjs.dev/svgjs" viewBox="0 0 1920 1080"><rect width="1920" height="1080" fill="#393939"></rect><g transform="matrix(0.9959292143521045,0.5749999999999998,-0.5749999999999998,0.9959292143521045,314.33564047540267,-539.5874319162131)"><path d="M0,-1080C8.617883340958258,-968.0878112870644,44.12914487981232,-632.5215591706485,51.70730004574955,-408.5268677223865C59.285455211686774,-184.53217627412454,41.819735121207465,64.07379801828574,45.46893099562334,263.96814868957176C49.11812687003921,463.8624993608578,86.71393093945547,591.9736085347187,73.60247529224478,790.8392363053296C60.49101964503408,989.7048640759405,-20.93272367226669,1228.9684546974586,-33.19980288764082,1457.161915313237C-45.46688210301495,1685.3553759290153,-5.5333004812734705,2042.8603192188727,0,2160L 1920 2160 L 1920 -1080 Z" fill="url(&quot;#SvgjsLinearGradient1286&quot;)"></path><path d="M240,-1080C241.46548373121345,-1008.2417278373279,252.95319651630453,-813.3205085771443,248.79290238728066,-649.4503670239673C244.6326082582568,-485.5802254707902,220.49641171151356,-265.3768252067012,215.03823522585677,-96.77915068093736C209.58005874019997,71.81852384482647,223.50077927698953,216.7575883552283,216.04384347333996,362.1356801306157C208.5869076696904,507.51377190600306,167.74071375619567,634.7037817935611,170.29662040395937,775.489399971387C172.85252705172306,916.2750181492129,212.29528592282264,1050.1025924145613,231.37928335992217,1206.8493891975713C250.4632807970217,1363.5961859805814,283.36381891987696,1557.1117455357096,284.8006050265566,1715.9701806694477C286.2373911332362,1874.8286158031858,247.4667675044261,2085.9950301115746,240,2160L 1920 2160 L 1920 -1080 Z" fill="url(&quot;#SvgjsLinearGradient1287&quot;)"></path><path d="M480,-1080C469.96660345373886,-980.7714275048332,419.0880584468199,-678.7341275808493,419.799620722433,-484.6285650289992C420.51118299804614,-290.52300247714913,480.5771786906522,-79.93445371473268,484.2693736536787,84.63337531110068C487.9615686167052,249.20120433693404,436.35890369242384,345.0926680731445,441.95279050059196,502.778409126001C447.5466773087601,660.4641501788575,512.7785401586277,839.8307851592101,517.8326945026873,1030.7478216282398C522.886848846747,1221.6648580972694,478.58316564873115,1460.0719315448855,472.2777165649499,1648.2806279401789C465.97226748116867,1836.4893243354722,478.712952760825,2074.71343799003,480,2160L 1920 2160 L 1920 -1080 Z" fill="url(&quot;#SvgjsLinearGradient1288&quot;)"></path><path d="M720,-1080C709.2342423668601,-984.1933608639176,645.5134356182684,-708.5068124122984,655.4054542011606,-505.16016518350585C665.2974727840528,-301.81351795471335,769.0418840862719,-96.22887936435126,779.3521114973533,140.0798833727549C789.6623389084348,376.38864610986104,715.755046285204,694.4891497741344,717.266818667649,912.692411239131C718.778591050094,1130.8956727041277,787.9672155699645,1241.4148540359238,788.4227457920231,1449.2994521627352C788.8782760140816,1657.1840502895466,731.4037909653372,2041.5499086937891,720,2160L 1920 2160 L 1920 -1080 Z" fill="url(&quot;#SvgjsLinearGradient1289&quot;)"></path><path d="M960,-1080C947.5667854860935,-980.0052383197823,893.2505812229496,-664.0305600477157,885.4007129165612,-480.03142991869385C877.5508446101729,-296.03229978967204,899.1362248864468,-140.70355348638384,912.90079016167,23.994780774131C926.6653554368932,188.6931150346458,950.6957404988609,337.53300744356505,967.9881045679005,508.15857564439506C985.28046863694,678.7841438452251,1028.7570083771157,872.0785116727327,1016.6549745759072,1047.748189979111C1004.5529407746986,1223.4178682854892,904.8183975233003,1376.8013438125167,895.3759017606491,1562.176645482665C885.9334059979979,1747.5519471528132,949.2293169601082,2060.362774247111,960,2160L 1920 2160 L 1920 -1080 Z" fill="url(&quot;#SvgjsLinearGradient1290&quot;)"></path><path d="M1200,-1080C1213.2677095550152,-980.0187937175867,1266.1087092794794,-648.038621145954,1279.606257330091,-480.1127623055201C1293.1038053807026,-312.18690346508623,1302.7450776653652,-230.59373086921974,1280.9852883036701,-72.4448469573968C1259.225498941975,85.70403695442613,1165.1889862550743,271.29184734110527,1149.0475211599205,468.7805411654175C1132.9060560647667,666.2692349897297,1189.6333811326263,914.3580951998168,1184.1364977327478,1112.4873159884767C1178.6396143328693,1310.6165367771364,1113.4223037161073,1482.9704185621226,1116.0662207606492,1657.5558658973764C1118.7101378051912,1832.1413132326302,1186.0110367934415,2076.259310982896,1200,2160L 1920 2160 L 1920 -1080 Z" fill="url(&quot;#SvgjsLinearGradient1291&quot;)"></path><path d="M1440,-1080C1435.2439871723152,-983.4051027839314,1408.5635763425234,-674.2233243945583,1411.463923033891,-500.4306167035881C1414.3642697252585,-326.6379090126179,1455.7564974931029,-204.72896182464876,1457.402080148205,-37.24375385417909C1459.047662803307,130.24145411629058,1426.9103789798792,315.31444363728093,1421.3374189645035,504.48063111922994C1415.7644589491279,693.6468186011789,1423.5854102420276,919.7911351069839,1423.9643200559517,1097.7533710375149C1424.3432298698758,1275.715606968046,1420.93826452404,1395.2129418753348,1423.6108778480482,1572.2540467024157C1426.2834911720563,1749.2951515294967,1437.2684796413414,2062.042341117069,1440,2160L 1920 2160 L 1920 -1080 Z" fill="url(&quot;#SvgjsLinearGradient1292&quot;)"></path><path d="M1680,-1080C1672.588459429306,-1001.4865793447561,1635.6827696749197,-800.6503751951625,1635.5307565758362,-608.9194760685368C1635.3787434767528,-417.18857694191115,1665.9602721839099,-126.74565407137973,1679.0879214054996,70.38539475975392C1692.2155706270894,267.51644359088755,1726.709949003379,401.40162427180655,1714.2966519053748,573.8668169182652C1701.8833548073706,746.3320095647238,1614.838325536446,929.474908442373,1604.6081388174744,1105.1765506385054C1594.3779520985026,1280.878192834638,1640.350221394457,1452.272761868144,1652.9155315915448,1628.0766700950599C1665.4808417886325,1803.8805783219757,1675.4859219319242,2071.34611168251,1680,2160L 1920 2160 L 1920 -1080 Z" fill="url(&quot;#SvgjsLinearGradient1293&quot;)"></path></g><defs><linearGradient x1="0.1" y1="0" x2="0" y2="1" id="SvgjsLinearGradient1286"><stop stop-color="#393939" offset="0"></stop><stop stop-color="#393939" offset="0"></stop></linearGradient><linearGradient x1="0.1" y1="0" x2="0" y2="1" id="SvgjsLinearGradient1287"><stop stop-color="#323232" offset="0"></stop><stop stop-color="#323232" offset="0.125"></stop></linearGradient><linearGradient x1="0.1" y1="0" x2="0" y2="1" id="SvgjsLinearGradient1288"><stop stop-color="#2b2b2b" offset="0"></stop><stop stop-color="#2b2b2b" offset="0.25"></stop></linearGradient><linearGradient x1="0.1" y1="0" x2="0" y2="1" id="SvgjsLinearGradient1289"><stop stop-color="#242424" offset="0"></stop><stop stop-color="#242424" offset="0.375"></stop></linearGradient><linearGradient x1="0.1" y1="0" x2="0" y2="1" id="SvgjsLinearGradient1290"><stop stop-color="#1c1c1c" offset="0"></stop><stop stop-color="#1c1c1c" offset="0.5"></stop></linearGradient><linearGradient x1="0.1" y1="0" x2="0" y2="1" id="SvgjsLinearGradient1291"><stop stop-color="#151515" offset="0"></stop><stop stop-color="#151515" offset="0.625"></stop></linearGradient><linearGradient x1="0.1" y1="0" x2="0" y2="1" id="SvgjsLinearGradient1292"><stop stop-color="#0e0e0e" offset="0"></stop><stop stop-color="#0e0e0e" offset="0.75"></stop></linearGradient><linearGradient x1="0.1" y1="0" x2="0" y2="1" id="SvgjsLinearGradient1293"><stop stop-color="#070707" offset="0"></stop><stop stop-color="#070707" offset="0.875"></stop></linearGradient></defs></svg>